<?xml version="1.0" encoding="utf-8"?>
<svg xmlns="http://www.w3.org/2000/svg" viewBox="0 0 500 500">
  <path d="M 382.267 334.867 C 380.549 313.893 367.948 295.445 349.218 286.48 L 316.133 270.644 L 334.013 233.103 C 343.893 212.362 343.894 188.164 334.015 167.422 L 286.513 67.679 C 251.706 -5.406 149.302 -5.408 114.493 67.677 L 66.987 167.425 C 57.108 188.168 57.109 212.366 66.992 233.108 L 84.874 270.644 L 51.786 286.48 C 33.056 295.445 20.456 313.893 18.739 334.867 L 15.746 371.408 C 14.839 382.467 23.424 391.95 34.338 391.95 L 366.67 391.95 C 377.583 391.95 386.167 382.467 385.26 371.41 L 382.267 334.867 Z M 289.994 205.878 C 289.985 252.884 254.746 292.141 208.704 296.438 L 208.704 274.118 C 208.704 267.7 201.87 263.689 196.403 266.898 C 193.865 268.387 192.302 271.139 192.302 274.118 L 192.302 296.438 C 146.259 292.141 111.021 252.885 111.012 205.878 L 111.012 158.13 C 111.012 144.722 121.703 133.853 134.892 133.853 L 266.113 133.853 C 279.303 133.853 289.994 144.722 289.994 158.13 L 289.994 205.878 Z" style="fill: rgb(41, 164, 0); stroke: rgb(0, 0, 0); stroke-width: 2px; stroke-opacity: 0.7;"/>
  <path d="M 233.579 182.502 C 225.514 182.516 218.685 188.695 217.55 197.006 L 212.441 197.006 C 210.683 187.92 200.137 184.218 193.452 190.338 C 192.93 190.821 192.448 191.349 192.016 191.92 L 179.583 186.035 L 194.185 165.609 C 198.292 168.824 203.96 168.786 208.031 165.516 L 218.892 177.667 L 212.671 177.667 L 212.671 182.502 L 226.609 182.502 L 226.609 167.998 L 221.964 167.998 L 221.964 174.006 L 211.112 161.861 C 212.125 160.055 212.664 158.004 212.671 155.91 C 212.671 146.609 202.995 140.793 195.249 145.444 C 191.652 147.605 189.442 151.593 189.442 155.91 C 189.45 158.025 190.005 160.098 191.035 161.92 L 175.257 183.991 L 161.355 177.412 C 161.798 175.071 161.538 172.639 160.607 170.458 L 177.817 163.762 L 175.773 170.391 L 180.149 172 L 184.795 158.328 L 171.657 153.494 L 170.104 158.052 L 174.797 159.779 L 157.796 166.392 C 151.236 160.079 140.569 163.525 138.599 172.59 C 136.625 181.661 144.826 189.55 153.356 186.795 C 153.788 186.655 154.214 186.49 154.627 186.296 L 164.316 199.293 L 154.777 212.635 C 146.669 208.714 137.521 215.396 138.312 224.665 C 139.102 233.932 149.238 238.835 156.556 233.488 C 157.403 232.873 158.16 232.144 158.818 231.318 L 175.005 238.99 L 170.104 240.793 L 171.657 245.352 L 184.795 240.518 L 180.149 226.845 L 175.768 228.455 L 177.789 235.001 L 161.026 227.048 C 161.366 225.931 161.552 224.766 161.564 223.595 C 161.56 222.74 161.471 221.885 161.296 221.048 L 175.48 214.256 L 191.63 235.915 C 186.427 243.471 191.035 254.06 199.928 254.969 C 208.82 255.877 215.325 246.431 211.635 237.964 C 211.381 237.375 211.079 236.814 210.74 236.279 L 221.964 224.598 L 221.964 230.848 L 226.609 230.848 L 226.609 216.344 L 212.671 216.344 L 212.671 221.179 L 218.681 221.179 L 207.454 232.86 C 203.724 230.263 198.877 230.176 195.064 232.632 L 179.809 212.182 L 191.676 206.496 C 196.884 214.029 207.981 212.868 211.645 204.406 C 212.004 203.586 212.267 202.725 212.441 201.84 L 217.55 201.84 C 219.363 214.701 233.877 220.701 243.676 212.635 C 253.474 204.566 251.208 188.491 239.596 183.696 C 237.683 182.904 235.638 182.497 233.579 182.502 Z M 201.056 148.659 C 206.423 148.659 209.773 154.703 207.093 159.537 C 204.412 164.372 197.703 164.372 195.022 159.537 C 194.409 158.434 194.087 157.182 194.087 155.91 C 194.093 151.907 197.21 148.663 201.056 148.659 Z M 201.056 235.683 C 206.423 235.683 209.773 241.727 207.093 246.561 C 204.412 251.394 197.703 251.394 195.022 246.561 C 194.409 245.458 194.087 244.206 194.087 242.936 C 194.093 238.931 197.21 235.689 201.056 235.683 Z M 142.981 175.25 C 142.943 169.666 148.728 166.137 153.393 168.897 C 157.629 171.406 158.151 177.551 154.396 180.785 L 153.726 181.328 C 149.243 184.368 143.278 181.221 142.99 175.661 C 142.985 175.526 142.981 175.385 142.981 175.25 Z M 158.405 183.483 C 158.856 182.995 159.265 182.468 159.632 181.907 L 172.418 187.955 L 167.197 195.265 L 158.405 183.483 Z M 149.95 230.848 C 144.585 230.848 141.233 224.804 143.914 219.97 C 146.595 215.135 153.304 215.135 155.986 219.97 C 156.598 221.073 156.919 222.325 156.919 223.595 C 156.915 227.6 153.797 230.844 149.95 230.848 Z M 159.413 216.63 C 159.136 216.233 158.837 215.856 158.517 215.498 L 167.276 203.256 L 172.552 210.334 L 159.413 216.63 Z M 176.884 208.261 L 170.156 199.23 L 176.753 190.005 L 189.906 196.232 C 189.349 198.137 189.298 200.163 189.753 202.096 L 176.884 208.261 Z M 201.056 206.675 C 195.69 206.675 192.34 200.631 195.022 195.797 C 197.703 190.962 204.412 190.962 207.093 195.797 C 207.706 196.898 208.026 198.151 208.026 199.424 C 208.022 203.426 204.904 206.67 201.056 206.675 Z M 233.579 211.51 C 224.635 211.51 219.051 201.44 223.521 193.38 C 227.99 185.32 239.169 185.32 243.639 193.38 C 244.656 195.217 245.196 197.3 245.196 199.424 C 245.191 206.095 239.992 211.505 233.579 211.51 Z M 240.549 199.424 C 240.549 205.007 234.741 208.493 230.095 205.702 C 225.448 202.913 225.448 195.933 230.095 193.142 C 231.155 192.504 232.358 192.171 233.579 192.171 C 237.427 192.175 240.545 195.419 240.549 199.424 Z" style="fill: rgb(41, 164, 0); stroke: rgb(0, 0, 0);"/>
  <path fill="none" d="M 138.334 138.99 L 249.842 138.99 L 249.842 255.021 L 138.334 255.021 L 138.334 138.99 Z"/>
  <g class="shield" transform="matrix(1.278922, 0, 0, 1.243338, 107.618843, 162.080734)">
    <g>
      <g style="" transform="matrix(0.499662, 0, 0, 0.440261, 66.047897, 31.645443)">
        <path d="M45.532,70.102v140.312c0,134.47,107.3,232.116,192.929,301.586V0C213.884,45.508,139.899,70.102,45.532,70.102z" style="fill: rgba(182, 255, 128, 0.804); stroke: rgb(0, 0, 0); stroke-width: 5.05722px; stroke-opacity: 0.45;"/>
        <g>
          <g>
            <path d="M273.539,0v512c85.629-69.47,192.929-167.117,192.929-301.586V70.102C372.103,70.102,298.118,45.508,273.539,0z" style="fill: rgba(182, 255, 128, 0.804); stroke: rgb(0, 0, 0); stroke-width: 5.05722px; stroke-opacity: 0.45;"/>
          </g>
        </g>
      </g>
    </g>
  </g>
</svg>